<svg xmlns="http://www.w3.org/2000/svg" xmlns:xlink="http://www.w3.org/1999/xlink" width="425" height="213" viewBox="0 0 425 213"><defs><clipPath id="clip-path"><path id="path108" d="M0,287.6H154.458V0H0Z"></path></clipPath></defs><g id="Grupo_2834" data-name="Grupo 2834" transform="translate(0.094 0.438)"><rect id="Rect&#xE1;ngulo_53" data-name="Rect&#xE1;ngulo 53" width="425" height="213" transform="translate(-0.094 -0.438)" fill="none"></rect><g id="Grupo_88" data-name="Grupo 88" transform="translate(68.606 28.833)"><g id="g104" transform="translate(287.6) rotate(90)"><g id="g106" clip-path="url(#clip-path)"><path id="path112" d="M141.077,131.047c-2.819-7.673-5.667-17.065.247-28.613a130.714,130.714,0,0,0,8.849-19.861c8.687-25.664,3-47.3-6.635-61.936C126.288-5.57,83.325-10.316,50.607,27.055c-17.871,20.413-30.193,44.738-37.634,67.8a251.513,251.513,0,0,0-12.458,64c-4.207,56.049,18,94.333,45.011,114.308,47.059,34.777,108.459,4.623,108.9-68.182.114-19-.907-31.113-4.844-47.329a242.77,242.77,0,0,0-8.5-26.61" transform="translate(0 0.001)" fill="#502e91"></path></g></g><path id="path114" d="M262.634,631.513c-6.184,0-10.9,2.422-15.771,8.274v-6.811H231.606v50.512h15.257v-31.7c3.966-6.395,6.856-8.5,10.634-8.5,4.291,0,7.542,2.988,7.542,10.264v29.932h15.244V651.146c0-15.1-10.078-19.633-17.65-19.633ZM154.78,672.229H142.12v-10.5h12.66c3.209,0,6.184,1.294,6.184,5.247C160.963,671.1,157.989,672.229,154.78,672.229Zm-12.624-28.151h11.655c2.669,0,6.089.6,6.089,4.07,0,3.83-3.638,3.943-6.089,3.943H142.156Zm30.284,14.444a17.508,17.508,0,0,0-3.882-2.578,12.2,12.2,0,0,0,6.681-11.239c0-7.428-5.1-10.562-9.848-12.152-2.734-.913-5.1-.913-8.128-.988H127.529v52.121h30.814c4.106,0,8.567-.23,12.809-3.488a14.763,14.763,0,0,0,5.738-11.753,12.962,12.962,0,0,0-4.451-9.922ZM318.8,669.729a10.349,10.349,0,0,1-8.059,3.69,10.581,10.581,0,0,1-9.181-5.072A16.87,16.87,0,0,1,299,658.932a17.389,17.389,0,0,1,3.823-11.242,9.214,9.214,0,0,1,7.92-3.628,9.887,9.887,0,0,1,6.216,1.9c3.323,2.7,5.455,7.588,5.455,12.832a17.144,17.144,0,0,1-3.612,10.937Zm4.7,12.526-.075-.2c9.093-3.183,15.355-12.01,15.355-24.026,0-19.929-15.6-26.987-27.647-26.987-14.555,0-27.907,9.184-27.907,26.87,0,16.2,11.707,26.821,27.8,26.873,1.843,2.231,10.221,9.507,23.187,9.507a38.248,38.248,0,0,0,11.665-1.9l2.354-16.776c-9.428,7.946-22.611,7.266-24.731,6.632ZM194.618,651.868c.91-4.623,4.109-8,8.84-8,4.633,0,7.907,3.446,8.827,8Zm9.012-20.543c-14.617,0-24.978,10.8-24.978,26.132,0,.27,0,.54.014.813-.014.266-.014.546-.014.813,0,15.563,10.774,25.706,27.436,25.706,3.69,0,12.666,0,21.184-6.587V666.754c-6.974,5.28-11.59,6.018-17.6,6.018-8.745,0-14.331-3.44-15.423-11.31h33.837c.039-.822.039-1.629.023-2.412.358-17.767-10.891-27.725-24.48-27.725" transform="translate(-90.286 -570.898)" fill="#fff"></path></g></g></svg>