<svg xmlns="http://www.w3.org/2000/svg" xmlns:xlink="http://www.w3.org/1999/xlink" width="426" height="213" viewBox="0 0 426 213"><defs><clipPath id="clip-path"><rect id="agencia-de-marketing-para-Edenred" width="426" height="213" transform="translate(-13852 2078)"></rect></clipPath></defs><g id="Enmascarar_grupo_77" data-name="Enmascarar grupo 77" transform="translate(13852 -2078)" clip-path="url(#clip-path)"><path id="logos-solution-edenred" d="M122.007,109.622l.952-9.088a22.523,22.523,0,0,1-9.42,2.324c-5.325,0-11.462-2.488-12.592-8.946h29.677c.3-14.128-6.9-23.309-21.295-23.309-12.741,0-21.045,8.575-21.045,20,0,13.151,9.295,20.9,22.482,20.9A30.1,30.1,0,0,0,122.007,109.622ZM62.124,111.5c14.01,0,22.478-8.425,22.478-22.781V57.68H73.144V75.122c-2.1-2.252-6.3-4.523-11.986-4.523-12.438,0-20.771,8.2-20.771,20.457,0,11.733,8.771,20.447,21.737,20.447ZM171.7,84.225c.1,0-.057.014.025,0,1.212-9.837,8.564-13.625,18.012-13.625a36.6,36.6,0,0,1,5.524.62c.6.1,1.1.182,1.454.225l-2.178,10.072a12.438,12.438,0,0,0-4.565-.9c-5.464,0-6.978,3.6-6.978,9.241v20.885h-11.53V86.994c0-11.344-8.233-16.394-19.171-16.394s-19.2,5.05-19.2,16.394v23.751H144.57V89.856c0-5.645,2.163-9.241,7.72-9.241,5.531,0,7.709,3.6,7.709,9.241v20.885h11.462A85.366,85.366,0,0,1,6.433,113.232c-.068-.221-.952-3.236-1.625-6.807-.125-.634-.4-2.334-.552-3.607l.1.392c.036.125.071.257.135.52A8.24,8.24,0,0,0,6.005,106.9a10.079,10.079,0,0,0,6.3,3.582v-.014a17.713,17.713,0,0,0,3.129.278H37.932l1.643-10.211H19.26c-3.143,0-4.8-1.811-4.8-5.642V88.569h19.88l1.639-9.847H14.459V67.9H38.224L39.792,57.68H9.527A85.322,85.322,0,0,1,88.505,4.438c45.167,0,80.212,35.234,83.191,79.787Zm89.114-3.564c-6.084,0-9.926,4.33-9.926,10.375,0,5.977,3.91,10.457,9.926,10.457S270.9,97.234,270.9,91.036c0-6.18-4.07-10.371-10.086-10.371Zm10.336-5.453V57.9h11.1V88.726c0,14.263-8.19,22.631-21.758,22.631-12.538,0-21.01-8.671-21.01-20.322,0-12.157,8.03-20.3,20.076-20.3,5.51,0,9.566,2.238,11.594,4.476ZM209.2,87.14a8.975,8.975,0,0,1,9.152-7.2c4.694,0,8.019,2.662,8.621,7.2Zm-12.492,4.177c0,12.617,9.373,20.04,22.7,20.04a31.824,31.824,0,0,0,11.351-1.8l.962-8.714a23.693,23.693,0,0,1-9.5,2.228c-5.375,0-11.587-2.388-12.731-8.579h29.973c.307-13.543-6.964-22.336-21.491-22.336-12.866,0-21.266,8.208-21.266,19.164ZM109.9,78.726a8.087,8.087,0,0,1,8.539,7.513h-17.6C101.8,81.962,104.964,78.726,109.9,78.726ZM50.588,91.057c0,6.016,4.042,10.525,10.261,10.525s10.41-4.287,10.41-10.528-4.191-10.443-10.41-10.443c-6.3,0-10.261,4.355-10.261,10.443Z" transform="translate(-13782.252 2094.526)" fill="#f72717" fill-rule="evenodd"></path></g></svg>