<svg xmlns="http://www.w3.org/2000/svg" xmlns:xlink="http://www.w3.org/1999/xlink" width="425" height="213" viewBox="0 0 425 213"><defs><clipPath id="clip-path"><rect id="Rect&#xE1;ngulo_52" data-name="Rect&#xE1;ngulo 52" width="425" height="213" transform="translate(0 -0.483)" fill="#fff"></rect></clipPath></defs><g id="Grupo_2847" data-name="Grupo 2847" transform="translate(0 0.483)"><g id="Enmascarar_grupo_80" data-name="Enmascarar grupo 80" clip-path="url(#clip-path)"><g id="Cartier_logo" transform="translate(42.051 58.61)"><path id="path2450" d="M72.145,0a38.887,38.887,0,0,0-9.7,1.231S44.336,5.725,24.378,24.361A110.639,110.639,0,0,0,8.121,46.433S1.116,59.386.059,70.224c0,0-1.057,12.16,5.815,18.372,0,0,7.93,7.269,25.245,5.815a60.936,60.936,0,0,0,22.6-8.723A84.171,84.171,0,0,0,63.1,78.551s-1.718,6.212.793,10.706a11.571,11.571,0,0,0,7.8,5.155s3.965.793,9.648-1.322c0,0,3.569-1.586,5.948-2.776a78.937,78.937,0,0,0,9.648-6.344,9.415,9.415,0,0,0,1.19,6.873,10.4,10.4,0,0,0,7.137,3.965S117.69,95.733,135,74.453l-12.16,19.561,11.1-.132L143.6,77.229s10.045-17.182,12.16-19.3c0,0,5.155-6.873,12.953-8.459l5.155.4a4.041,4.041,0,0,1,2.115,3.436l-3.833-.661a4.776,4.776,0,0,0-3.436,2.643,7.735,7.735,0,0,0-.529,4.494,4.569,4.569,0,0,0,2.379,2.511l1.19.4,3.833-.529s6.741-2.511,15.993-14.142l-2.115,3.833-7.8,13.349-9.12,16.125s-2.643,5.287-1.454,8.459a6.964,6.964,0,0,0,5.155,3.833l8.591-.661a27,27,0,0,0,8.855-4.89l5.683-4.626a155.536,155.536,0,0,0,13.085-12.688l-.4.529s-5.419,9.913-6.344,13.217c0,0-2.115,7.005,2.776,9.781l5.551.529a23.361,23.361,0,0,0,9.252-3.965l7.534-6.476a124.161,124.161,0,0,0,9.913-10.441,33,33,0,0,0-2.115,6.873S237.3,90.049,245.9,93.75l8.062.661a36.065,36.065,0,0,0,8.062-1.983s11.367-3.7,27.359-18.372c0,0,8.062-7.4,13.746-14.01l-20.09,33.7h9.913l7.4-12.424,9.516-15.464A46.927,46.927,0,0,1,325.2,51.72a25.959,25.959,0,0,1,7.005-2.908s3.172-.661,3.833.925a4.66,4.66,0,0,0-5.551,3.7s-1.057,4.626,2.643,6.08a6.126,6.126,0,0,0,5.022-.661,7.837,7.837,0,0,0,2.643-4.229A7.256,7.256,0,0,0,340,49.87a7.04,7.04,0,0,0-5.287-2.643s-4.1-.132-12.292,5.287c0,0-6.08,3.965-8.591,6.476l6.741-11.5H310.527a128.713,128.713,0,0,1-26.3,30s-16.389,13.349-25.641,13.746c0,0-8.988.661-9.913-6.212,0,0-.529-4.1,1.85-9.913a35.56,35.56,0,0,0,12.953-1.85,56.976,56.976,0,0,0,12.821-6.212s6.212-4.229,8.459-8.723c0,0,2.643-5.022-.4-9.252,0,0-5.551-5.419-17.579-.4A58.3,58.3,0,0,0,245.1,66.127L242.723,69.7l-.264.4-6.609,7.666L229.11,84.5s-8.195,8.062-12.292,5.683a4.3,4.3,0,0,1-1.586-3.569,11.752,11.752,0,0,1,1.85-5.551l19.165-33.307h-8.591s-4.758,7.8-10.309,15.2c0,0-10.838,14.407-22.6,22.733,0,0-8.062,6.212-12.556,4.1a3.56,3.56,0,0,1-1.85-3.436s.132-2.776,2.776-6.609l18.768-31.985,10.441-.132,1.322-1.322H203.072l11.234-19.958-9.516.132s-6.609,11.234-11.631,17.975c0,0-9.252,12.16-16.918,15.464a8.389,8.389,0,0,0,1.454-4.362l-.132-2.115a6.268,6.268,0,0,0-3.172-4.1l-2.379-.661-4.494.4A26.067,26.067,0,0,0,157.341,54.5l4.1-6.873h-9.516A200.206,200.206,0,0,1,132.1,76.039s-14.671,16.918-22.733,14.935a4.963,4.963,0,0,1-2.511-4.1s0-2.908,2.511-7.005l19.165-32.382-9.516.132-3.04,5.287-1.983,3.833a8.657,8.657,0,0,0,0-3.7s-.793-5.948-6.476-7.137l-4.494-.4S91.653,45.376,78.7,56.743A86.017,86.017,0,0,0,63.1,76.7S49.622,89.256,35.348,92.032c0,0-12.688,2.643-18.107-3.04a25.03,25.03,0,0,1-5.948-16.653s.132-12.556,9.12-29.606c0,0,9.516-14.01,15.332-20.354,0,0,14.8-16.257,30.135-20.354,0,0,12.556-3.3,19.561,2.379,0,0,5.948,4.89,6.476,14.8l3.436-5.815a84.113,84.113,0,0,1,8.195-10.838,31,31,0,0,1-7.93,2.115s-5.419.661-8.062-.925C87.555,3.742,81.667.023,72.145,0Zm32.278,46.706a9.105,9.105,0,0,1,5.865,1.842c4.626,4.229.925,12.16.925,12.16A80.228,80.228,0,0,1,93.635,84.5l-6.344,4.494c-9.913,4.89-14.142,1.454-14.142,1.454-3.436-2.908-1.983-9.516-1.983-9.516.925-4.494,4.626-10.97,4.626-10.97l7.137-10.441A53.169,53.169,0,0,1,96.807,48.68,17.05,17.05,0,0,1,104.424,46.706Zm170.025,1.165a3.616,3.616,0,0,1,.392.017,5.726,5.726,0,0,1,3.04,1.322,6.18,6.18,0,0,1,.661,3.965s-.661,7.005-8.459,13.614c0,0-8.855,7.534-19.165,7.269l1.983-4.1A73.054,73.054,0,0,1,264,54.5S270.328,47.921,274.448,47.871Z" transform="translate(0 0)"></path><path id="path2454" d="M292.059,40.2a4.693,4.693,0,0,0,1.322,3.04,4.614,4.614,0,0,0,3.04,1.19,4.523,4.523,0,0,0,2.908-1.19,5.06,5.06,0,0,0,1.19-3.04l-1.19-3.04a4.949,4.949,0,0,0-2.908-1.19,4.769,4.769,0,0,0-3.04,1.19,4.417,4.417,0,0,0-1.322,3.04" transform="translate(-57.795 -7.118)"></path></g></g></g></svg>