<svg xmlns="http://www.w3.org/2000/svg" width="425" height="213" viewBox="0 0 425 213"><g id="Grupo_2837" data-name="Grupo 2837" transform="translate(0 0.483)"><rect id="Rect&#xE1;ngulo_52" data-name="Rect&#xE1;ngulo 52" width="425" height="213" transform="translate(0 -0.483)" fill="none"></rect><g id="honda-logo-01" transform="translate(56.625 87.103)"><path id="Trazado_835" data-name="Trazado 835" d="M392.8,256.841v-4.678l4.928-.5c1.559-.312,2.183-1.746,2.495-2.058l11.913-19.4a1.931,1.931,0,0,0-1.247-3.056l-6.175-.624V221.6h27.07a3.825,3.825,0,0,1,3.119,2.058l15.905,24.2c1.247,1.871,2.183,3.431,3.742,3.68l5.115.5v4.928H429.039v-4.678l3.743-.5c1.871-.187,3.43-1.123,1.871-3.368l-1.435-2.183H411.7l-1.746,2.744c-.936,1.559,0,2.744,1.559,2.807l3.992.5v4.678H392.862v-.125Zm22.7-17.028h13.785L422.3,229.085l-6.8,10.728Z" transform="translate(-147.797 -220.415)" fill="#e92e36"></path><path id="Trazado_836" data-name="Trazado 836" d="M339.267,221.5H304.4v4.927l4.3.312a2.74,2.74,0,0,1,2.433,3.056V248.82c0,1.435-.624,2.744-2.058,2.807l-4.616.624v4.616h34.867c16.217,0,23.078-7.734,23.078-18.151.062-9.231-6.923-17.215-23.14-17.215Zm-5.3,28.5h-8.982V228.3h8.982c8.67,0,12.225,1.871,12.225,10.978-.125,8.857-3.555,10.728-12.225,10.728Z" transform="translate(-114.535 -220.377)" fill="#e92e36"></path><path id="Trazado_837" data-name="Trazado 837" d="M.125,256.8H28.442v-4.678l-4.927-.5c-1.123-.187-2.183-.811-2.183-3.119v-5.738H43.162V248.2c0,1.559-.312,3.119-2.183,3.368l-4.927.5v4.928H64.369V252l-5.115-.5a2.584,2.584,0,0,1-2.058-2.807v-18.4c0-1.871.624-3.119,2.183-3.368l4.928-.5V221.5H36.052v4.678l4.927.624c1.746.187,2.183,1.559,2.183,3.368V235.6H21.332v-5.551c0-2.058.936-3.056,2.433-3.119l4.678-.5V221.5H.187v4.928l4.678.5c1.746.187,2.433,1.559,2.183,3.368v17.839c0,2.058-.5,3.368-2.433,3.431L0,252v4.8Z" transform="translate(0 -220.377)" fill="#e92e36"></path><path id="Trazado_838" data-name="Trazado 838" d="M105.3,238.474c0-11.04,8.982-18.774,28.941-18.774,19.835,0,28.816,7.734,28.816,18.774,0,11.29-8.982,19.024-28.816,19.024-19.959,0-28.941-7.859-28.941-19.024Zm28.941-12.225c-8.046,0-12.662,3.056-12.662,12.225,0,9.294,4.616,12.35,12.662,12.35,7.921,0,12.537-3.056,12.537-12.35,0-9.169-4.616-12.225-12.537-12.225Z" transform="translate(-39.621 -219.7)" fill="#e92e36"></path><path id="Trazado_839" data-name="Trazado 839" d="M200.4,256.879h22.454V252.2l-4.678-.5c-1.435-.187-2.183-1.247-2.183-3.056V230.807l18.712,24.762A3.7,3.7,0,0,0,237.762,257h17.776V230.245c0-1.247.312-3.056,2.058-3.119l4.927-.5V221.7H240.069v4.678L245,227c1.747.187,2.058,1.746,2.058,3.368v17.465l-18.463-24.575a3.9,3.9,0,0,0-3.056-1.559H200.462v4.927l4.616.5c1.747.312,2.433,1.123,2.433,3.368v17.839c0,2.183-.624,3.119-2.433,3.431l-4.616.5v4.616Z" transform="translate(-75.404 -220.453)" fill="#e92e36"></path></g></g></svg>