<svg xmlns="http://www.w3.org/2000/svg" xmlns:xlink="http://www.w3.org/1999/xlink" width="426" height="213" viewBox="0 0 426 213"><defs><clipPath id="clip-path"><rect id="Rect&#xE1;ngulo_50" data-name="Rect&#xE1;ngulo 50" width="426" height="213" transform="translate(-0.161 -0.438)" fill="#fff"></rect></clipPath><clipPath id="clip-path-2"><rect id="Rect&#xE1;ngulo_47" data-name="Rect&#xE1;ngulo 47" width="407" height="407" transform="translate(0.06 0.352)"></rect></clipPath></defs><g id="Grupo_2835" data-name="Grupo 2835" transform="translate(-2188 -5886)"><g id="Enmascarar_grupo_34" data-name="Enmascarar grupo 34" transform="translate(2188.161 5886.438)" clip-path="url(#clip-path)"><g id="Enmascarar_grupo_30" data-name="Enmascarar grupo 30" transform="translate(9.779 -97.791)" clip-path="url(#clip-path-2)"><g id="logo-macstore" transform="translate(55.306 164.359)"><g id="Grupo_87" data-name="Grupo 87"><g id="Grupo_86" data-name="Grupo 86"><g id="Grupo_76" data-name="Grupo 76"><g id="Grupo_75" data-name="Grupo 75"><path id="Trazado_826" data-name="Trazado 826" d="M7.895,13.316v81.5H304.168v-81.5Zm293.5,78.722H10.67V16.072h290.7V92.038Z" transform="translate(-7.895 -13.316)"></path></g></g><g id="Grupo_85" data-name="Grupo 85" transform="translate(20.728 14.763)"><g id="Grupo_77" data-name="Grupo 77" transform="translate(0 0.755)"><path id="Trazado_827" data-name="Trazado 827" d="M76.018,60c-.321-6.23-.736-13.8-.736-19.312H75.15c-1.6,5.173-3.417,10.817-5.7,16.99L61.482,79.405H57.065L49.7,58.092c-2.152-6.381-3.889-12.082-5.154-17.387h-.113c-.132,5.588-.472,13.026-.887,19.784l-1.208,19.2h-5.55l3.153-44.741H47.38l7.7,21.634c1.869,5.512,3.341,10.421,4.55,15.084h.132c1.208-4.512,2.813-9.439,4.814-15.084L72.62,34.947h7.419l2.813,44.741H77.094Z" transform="translate(-36.789 -34.947)"></path></g><g id="Grupo_78" data-name="Grupo 78" transform="translate(52.67 12.705)"><path id="Trazado_828" data-name="Trazado 828" d="M135.545,76.675a53.021,53.021,0,0,0,.472,7.7h-5.3l-.472-4.04h-.208a12.086,12.086,0,0,1-9.911,4.776c-6.551,0-9.911-4.587-9.911-9.213,0-7.778,6.966-12.025,19.482-11.969v-.661c0-2.586-.736-7.419-7.362-7.362a15.764,15.764,0,0,0-8.514,2.4l-1.34-3.908A21.118,21.118,0,0,1,123.2,51.605c9.911,0,12.309,6.7,12.309,13.083V76.675Zm-5.7-8.722c-6.419-.132-13.706,1-13.706,7.249,0,3.851,2.53,5.569,5.475,5.569a8.163,8.163,0,0,0,7.967-5.38,6.275,6.275,0,0,0,.264-1.869Z" transform="translate(-110.21 -51.605)"></path></g><g id="Grupo_79" data-name="Grupo 79" transform="translate(85.14 12.648)"><path id="Trazado_829" data-name="Trazado 829" d="M180.921,83.223a23.12,23.12,0,0,1-9.307,1.85c-9.779,0-16.141-6.57-16.141-16.405,0-9.892,6.834-17.141,17.406-17.141a18.7,18.7,0,0,1,8.174,1.737l-1.34,4.455a14.4,14.4,0,0,0-6.834-1.529c-7.438,0-11.44,5.531-11.44,12.158,0,7.419,4.833,12.007,11.251,12.007a17.265,17.265,0,0,0,7.23-1.51Z" transform="translate(-155.474 -51.526)"></path></g><g id="Grupo_80" data-name="Grupo 80" transform="translate(115.459)"><path id="Trazado_830" data-name="Trazado 830" d="M199.247,72.331a20.015,20.015,0,0,0,10.364,2.926c5.947,0,9.439-3.115,9.439-7.627,0-4.115-2.416-6.57-8.5-8.835-7.362-2.662-11.912-6.513-11.912-12.743,0-6.966,5.814-12.158,14.593-12.158a20.267,20.267,0,0,1,9.911,2.19l-1.6,4.72a16.693,16.693,0,0,0-8.5-2.133c-6.154,0-8.5,3.662-8.5,6.7,0,4.191,2.756,6.23,8.967,8.627,7.627,2.907,11.459,6.57,11.459,13.139,0,6.909-5.078,12.95-15.726,12.95-4.361,0-9.1-1.321-11.516-2.926Z" transform="translate(-197.737 -33.895)"></path></g><g id="Grupo_81" data-name="Grupo 81" transform="translate(146.627 5.626)"><path id="Trazado_831" data-name="Trazado 831" d="M251.964,41.737v7.7H260.4v4.436h-8.439v17.33c0,3.983,1.133,6.249,4.417,6.249a11.157,11.157,0,0,0,3.417-.4l.264,4.455a16.2,16.2,0,0,1-5.21.793,8.462,8.462,0,0,1-6.362-2.454c-1.6-1.793-2.284-4.644-2.284-8.42V53.894h-5.022V49.458h5.022V43.474Z" transform="translate(-241.184 -41.737)"></path></g><g id="Grupo_82" data-name="Grupo 82" transform="translate(169.715 12.648)"><path id="Trazado_832" data-name="Trazado 832" d="M305.046,68.007c0,11.874-8.363,17.066-16.141,17.066-8.7,0-15.537-6.362-15.537-16.537,0-10.685,7.174-17.009,16.065-17.009C298.741,51.545,305.046,58.247,305.046,68.007Zm-25.655.34c0,7.042,4.021,12.346,9.76,12.346,5.626,0,9.854-5.248,9.854-12.478,0-5.437-2.756-12.29-9.7-12.29C282.411,55.925,279.391,62.306,279.391,68.347Z" transform="translate(-273.368 -51.526)"></path></g><g id="Grupo_83" data-name="Grupo 83" transform="translate(208.547 12.667)"><path id="Trazado_833" data-name="Trazado 833" d="M327.764,62.257c0-3.795-.057-7.042-.264-10.024h5.154l.264,6.362h.208c1.472-4.3,5.1-7.042,9.024-7.042a13.788,13.788,0,0,1,1.6.132V57.2a9.274,9.274,0,0,0-2-.132c-4.153,0-7.1,3.039-7.91,7.438a17.47,17.47,0,0,0-.208,2.718V84.344h-5.89V62.257Z" transform="translate(-327.5 -51.553)"></path></g><g id="Grupo_84" data-name="Grupo 84" transform="translate(227.689 12.667)"><path id="Trazado_834" data-name="Trazado 834" d="M359.81,69.355c.132,7.891,5.154,11.157,11.119,11.157A21.335,21.335,0,0,0,379.9,78.85l1.057,4.172a26.62,26.62,0,0,1-10.836,2.058c-9.986,0-15.933-6.57-15.933-16.273,0-9.684,5.758-17.255,15.2-17.255,10.647,0,13.385,9.156,13.385,15.084a14.146,14.146,0,0,1-.208,2.718Zm17.273-4.191c.076-3.643-1.548-9.42-8.174-9.42-6.022,0-8.571,5.38-9.024,9.42Z" transform="translate(-354.184 -51.553)"></path></g></g></g></g></g></g></g></g></svg>